<?xml version="1.0" standalone="no"?>
<!DOCTYPE svg PUBLIC "-//W3C//DTD SVG 20010904//EN"
 "http://www.w3.org/TR/2001/REC-SVG-20010904/DTD/svg10.dtd">
<svg version="1.0" xmlns="http://www.w3.org/2000/svg"
 width="149.000000pt" height="72.000000pt" viewBox="0 0 149.000000 72.000000"
 preserveAspectRatio="xMidYMid meet">

<g transform="translate(0.000000,72.000000) scale(0.100000,-0.100000)"
fill="#000000" stroke="none">
<path d="M758 703 c23 -2 59 -2 80 0 20 2 1 4 -43 4 -44 0 -61 -2 -37 -4z"/>
<path d="M548 683 c6 -2 18 -2 25 0 6 3 1 5 -13 5 -14 0 -19 -2 -12 -5z"/>
<path d="M475 675 c-5 -2 -44 -11 -85 -20 -85 -19 -214 -77 -278 -124 -99 -74
-132 -193 -76 -277 99 -150 368 -245 699 -246 225 0 405 36 557 113 66 33 151
107 174 151 24 46 16 44 -20 -6 -32 -46 -129 -125 -152 -126 -6 0 -17 -7 -24
-15 -7 -9 -19 -14 -27 -11 -7 3 -13 1 -13 -4 0 -10 -97 -40 -190 -60 -30 -6
-118 -14 -195 -17 -294 -11 -549 64 -669 198 -72 80 -82 148 -33 233 27 48
123 130 144 122 8 -3 12 -2 9 3 -7 10 72 45 154 66 89 24 88 23 60 23 -14 0
-29 -1 -35 -3z"/>
<path d="M631 614 c-12 -15 -21 -31 -21 -35 0 -15 32 -10 52 8 16 14 21 15 28
3 10 -16 38 -22 45 -9 3 4 -2 20 -11 34 -22 34 -66 34 -93 -1z"/>
<path d="M625 546 c-65 -29 -94 -92 -95 -205 0 -129 53 -201 149 -201 81 0
132 84 131 217 -2 151 -82 234 -185 189z m83 -111 c14 -31 16 -134 3 -168 -15
-39 -50 -45 -78 -13 -18 22 -23 39 -23 87 0 78 20 119 59 119 20 0 31 -7 39
-25z"/>
<path d="M814 543 c3 -10 21 -92 41 -183 47 -218 39 -200 88 -200 l42 0 52
187 c56 201 56 206 -2 201 -30 -3 -30 -4 -56 -118 -14 -63 -28 -122 -31 -130
-3 -8 -15 41 -27 110 -13 69 -25 131 -27 138 -2 7 -20 12 -44 12 -35 0 -40 -3
-36 -17z"/>
<path d="M359 536 c-30 -7 -61 -16 -67 -20 -8 -5 -12 -49 -12 -146 l0 -139 53
-11 c28 -7 70 -10 92 -8 36 3 42 7 63 48 38 75 27 229 -19 266 -24 20 -52 22
-110 10z m60 -90 c13 -16 17 -102 6 -135 -5 -16 -15 -21 -41 -21 -32 0 -34 2
-34 33 0 17 3 56 6 85 6 45 10 52 29 52 12 0 28 -6 34 -14z"/>
<path d="M1110 519 c0 -13 57 -250 71 -296 10 -30 14 -33 53 -33 l42 0 27 82
c15 46 39 111 52 145 l24 62 -36 10 c-20 6 -39 8 -43 6 -4 -3 -18 -42 -29 -87
-36 -135 -34 -134 -56 -27 -31 148 -32 149 -70 149 -19 0 -35 -5 -35 -11z"/>
<path d="M152 400 c0 -14 2 -19 5 -12 2 6 2 18 0 25 -3 6 -5 1 -5 -13z"/>
<path d="M220 235 c19 -19 36 -35 39 -35 3 0 -10 16 -29 35 -19 19 -36 35 -39
35 -3 0 10 -16 29 -35z"/>
<path d="M948 53 c7 -3 16 -2 19 1 4 3 -2 6 -13 5 -11 0 -14 -3 -6 -6z"/>
</g>
</svg>
